# xmcd
#
# Track frame offsets:
#	150
#	5858
#	25482
#	54228
#	84506
#	119179
#	147545
#	154783
#	191671
#	225138
#
# Disc length: 3507 seconds
#
# Revision: 11
# Processed by: cddbd v1.5.2PL0 Copyright (c) Steve Scherf et al.
# Submitted via: Jack! The Knife 20 Magnifico
#
DISCID=840db10a
DTITLE=Coroner - Grin
DYEAR=1993
DGENRE=Metal
TTITLE0=Dream Path
TTITLE1=The Lethargic Age
TTITLE2=Internal Conflicts
TTITLE3=Caveat (To The Comming)
TTITLE4=Serpent Moves
TTITLE5=Status: Still Thinking
TTITLE6=Theme For Silence
TTITLE7=Paralized, Mesmerized
TTITLE8=Grin (Nails Hurt)
TTITLE9=Host
EXTD=Coroner
EXTT0=Royce, Marky, Baron
EXTT1=Marky, Baron
EXTT2=Marky, Baron
EXTT3=Marky, Royce, Baron
EXTT4=Marky, Baron
EXTT5=Marky, Royce, Baron
EXTT6=Marky, Royce, Baron
EXTT7=Marky, Baron
EXTT8=Marky, Baron
EXTT9=Marky, Baron
PLAYORDER=
